{
 "cells": [
  {
   "cell_type": "raw",
   "metadata": {},
   "source": [
    "---\n",
    "title: \"Sound file properties\"\n",
    "date: 2020-04-12T14:41:32+02:00\n",
    "author: \"Othmane Rifki\"\n",
    "type: technical_note\n",
    "draft: false\n",
    "---"
   ]
  },
  {
   "cell_type": "code",
   "execution_count": 6,
   "metadata": {},
   "outputs": [],
   "source": [
    "filename = '/Users/othrif/spectrum/voice/datasets/free-spoken-digit-dataset/recordings/4_yweweler_5.wav'"
   ]
  },
  {
   "cell_type": "markdown",
   "metadata": {},
   "source": [
    "# In python"
   ]
  },
  {
   "cell_type": "code",
   "execution_count": 8,
   "metadata": {},
   "outputs": [
    {
     "data": {
      "text/plain": [
       "{'channels': 1,\n",
       " 'sample_rate': 8000.0,\n",
       " 'bitdepth': 16,\n",
       " 'bitrate': 129000.0,\n",
       " 'duration': 0.333875,\n",
       " 'num_samples': 2671,\n",
       " 'encoding': 'Signed Integer PCM',\n",
       " 'silent': False}"
      ]
     },
     "execution_count": 8,
     "metadata": {},
     "output_type": "execute_result"
    }
   ],
   "source": [
    "import sox\n",
    "sox.file_info.info(filename)"
   ]
  },
  {
   "cell_type": "markdown",
   "metadata": {},
   "source": [
    "# In CLI"
   ]
  },
  {
   "cell_type": "code",
   "execution_count": 12,
   "metadata": {},
   "outputs": [
    {
     "name": "stdout",
     "output_type": "stream",
     "text": [
      "\n",
      "Input File     : '/Users/othrif/spectrum/voice/datasets/free-spoken-digit-dataset/recordings/4_yweweler_5.wav'\n",
      "Channels       : 1\n",
      "Sample Rate    : 8000\n",
      "Precision      : 16-bit\n",
      "Duration       : 00:00:00.33 = 2671 samples ~ 25.0406 CDDA sectors\n",
      "File Size      : 5.39k\n",
      "Bit Rate       : 129k\n",
      "Sample Encoding: 16-bit Signed Integer PCM\n",
      "\n"
     ]
    }
   ],
   "source": [
    "!soxi /Users/othrif/spectrum/voice/datasets/free-spoken-digit-dataset/recordings/4_yweweler_5.wav"
   ]
  },
  {
   "cell_type": "code",
   "execution_count": 2,
   "metadata": {},
   "outputs": [
    {
     "name": "stdout",
     "output_type": "stream",
     "text": [
      "ffprobe version 4.3.1 Copyright (c) 2007-2020 the FFmpeg developers\n",
      "  built with Apple clang version 12.0.0 (clang-1200.0.32.28)\n",
      "  configuration: --prefix=/usr/local/Cellar/ffmpeg/4.3.1_8 --enable-shared --enable-pthreads --enable-version3 --enable-avresample --cc=clang --host-cflags= --host-ldflags= --enable-ffplay --enable-gnutls --enable-gpl --enable-libaom --enable-libbluray --enable-libdav1d --enable-libmp3lame --enable-libopus --enable-librav1e --enable-librubberband --enable-libsnappy --enable-libsrt --enable-libtesseract --enable-libtheora --enable-libvidstab --enable-libvorbis --enable-libvpx --enable-libwebp --enable-libx264 --enable-libx265 --enable-libxml2 --enable-libxvid --enable-lzma --enable-libfontconfig --enable-libfreetype --enable-frei0r --enable-libass --enable-libopencore-amrnb --enable-libopencore-amrwb --enable-libopenjpeg --enable-librtmp --enable-libspeex --enable-libsoxr --enable-videotoolbox --enable-libzmq --enable-libzimg --disable-libjack --disable-indev=jack\n",
      "  libavutil      56. 51.100 / 56. 51.100\n",
      "  libavcodec     58. 91.100 / 58. 91.100\n",
      "  libavformat    58. 45.100 / 58. 45.100\n",
      "  libavdevice    58. 10.100 / 58. 10.100\n",
      "  libavfilter     7. 85.100 /  7. 85.100\n",
      "  libavresample   4.  0.  0 /  4.  0.  0\n",
      "  libswscale      5.  7.100 /  5.  7.100\n",
      "  libswresample   3.  7.100 /  3.  7.100\n",
      "  libpostproc    55.  7.100 / 55.  7.100\n",
      "Input #0, wav, from '/Users/othrif/spectrum/voice/datasets/free-spoken-digit-dataset/recordings/4_yweweler_5.wav':\n",
      "  Duration: 00:00:00.33, bitrate: 129 kb/s\n",
      "    Stream #0:0: Audio: pcm_s16le ([1][0][0][0] / 0x0001), 8000 Hz, 1 channels, s16, 128 kb/s\n"
     ]
    }
   ],
   "source": [
    "!ffprobe -i /Users/othrif/spectrum/voice/datasets/free-spoken-digit-dataset/recordings/4_yweweler_5.wav"
   ]
  },
  {
   "cell_type": "markdown",
   "metadata": {},
   "source": [
    "# Convert file to a specified bit and sample rates\n",
    "\n",
    "``` bash \n",
    "sox <input> -b 16 -r 16000 <output>\n",
    "soxi <input>\n",
    "```"
   ]
  }
 ],
 "metadata": {
  "kernelspec": {
   "display_name": "Python 3",
   "language": "python",
   "name": "python3"
  },
  "language_info": {
   "codemirror_mode": {
    "name": "ipython",
    "version": 3
   },
   "file_extension": ".py",
   "mimetype": "text/x-python",
   "name": "python",
   "nbconvert_exporter": "python",
   "pygments_lexer": "ipython3",
   "version": "3.8.5"
  }
 },
 "nbformat": 4,
 "nbformat_minor": 4
}
